<svg width="355" height="610" viewBox="0 0 355 610" fill="none" xmlns="http://www.w3.org/2000/svg">
<path fill-rule="evenodd" clip-rule="evenodd" d="M165.097 518.965C161.04 510.069 157.55 500.855 154.626 491.322C154.209 488.825 154.069 486.312 154.207 483.784C155.883 483.784 157.558 483.784 159.233 483.784C152.18 456.336 145.898 428.693 140.386 400.855C138.162 397.242 135.649 393.891 132.847 390.803C132.431 388.586 132.291 386.352 132.428 384.102C131.59 384.102 130.753 384.102 129.915 384.102C128.117 379.394 125.465 375.206 121.957 371.537C113.468 355.262 110.676 337.951 113.581 319.601C118.52 300.289 125.221 281.86 133.685 264.316C131.354 259.378 129.26 254.352 127.402 249.238C116.244 248.54 105.075 248.121 93.8955 247.981C91.5417 247.326 89.3076 246.627 87.1942 245.887C83.924 245.056 80.5733 244.218 77.1423 243.374C64.8296 240.784 53.94 235.339 44.4734 227.04C38.7155 223.742 32.8519 220.671 26.8824 217.825C13.8688 207.313 5.63183 193.772 2.17136 177.199C-1.7536 155.315 -0.357466 133.814 6.35968 112.698C7.47008 108.522 9.84343 105.31 13.4798 103.065C17.5993 101.681 21.7876 100.564 26.0448 99.7147C63.826 95.3102 100.962 87.7712 137.454 77.0977C157.628 72.9798 177.732 68.5125 197.766 63.6951C211.756 61.6645 225.717 59.5704 239.649 57.4126C233.954 46.6342 231.86 35.1861 233.367 23.0684C235.547 13.5269 240.713 6.12759 248.863 0.87033C253.865 -0.922606 258.192 0.0546128 261.847 3.80215C265.282 11.5667 266.4 19.6642 265.198 28.0944C264.161 37.357 262.904 46.5713 261.428 55.7373C261.603 56.2282 261.883 56.647 262.266 56.9938C264.821 57.5626 267.334 58.2606 269.805 59.088C268.311 41.944 272.36 26.3076 281.951 12.1788C285.352 9.15307 288.842 6.22124 292.422 3.38332C298.953 0.491706 305.375 0.631344 311.688 3.80215C315.833 7.48896 317.508 12.0961 316.714 17.6236C316.609 23.4929 315.631 29.217 313.782 34.7957C308.65 47.664 303.205 60.3685 297.448 72.9094C301.839 79.3544 305.608 86.1956 308.756 93.4322C313.719 113.312 316.093 133.555 315.876 154.163C315.658 184.619 313.424 214.915 309.175 245.049C309.257 246.824 309.955 248.221 311.269 249.238C311.687 252.577 311.827 255.927 311.688 259.29C316.768 260.31 320.398 263.103 322.578 267.666C323.415 267.666 324.253 267.666 325.091 267.666C329.184 274.433 333.511 281.134 338.075 287.77C347.665 303.983 353.11 321.574 354.409 340.543C354.555 354.746 351.064 367.869 343.938 379.913C341.625 383.138 339.112 386.21 336.399 389.128C336.12 414.536 335.84 439.946 335.562 465.355C335.059 474.592 334.361 483.806 333.467 492.998C335.109 492.463 336.645 492.463 338.075 492.998C338.339 502.917 338.758 512.83 339.331 522.735C339.052 524.55 338.772 526.364 338.493 528.18C337.125 528.572 336.148 529.409 335.562 530.693C335.811 543.252 335.811 555.817 335.562 568.388C334.855 571.496 334.017 574.567 333.049 577.602C330.598 579.456 328.224 581.411 325.928 583.466C325.407 585.87 324.849 588.244 324.253 590.586C317.545 593.262 312.24 597.729 308.337 603.988C288.756 610.682 268.931 611.241 248.863 605.664C244.698 604.627 240.928 602.812 237.555 600.219C234.023 595.078 231.37 589.493 229.597 583.466C228.759 583.187 227.922 582.907 227.084 582.628C221.044 585.333 214.761 586.171 208.237 585.141C188.433 589.855 168.469 590.553 148.344 587.235C146.947 586.537 145.552 585.839 144.155 585.141C140.994 580.25 137.225 575.782 132.847 571.738C123.796 535.977 137.338 521.457 173.474 528.18C172.99 525.545 171.315 524.289 168.448 524.41C166.418 523.094 165.301 521.28 165.097 518.965Z" fill="#070706"/>
<path fill-rule="evenodd" clip-rule="evenodd" d="M208.655 277.718C196.85 277.797 185.123 276.959 173.473 275.205C170.006 274.315 166.377 273.756 162.584 273.53C155.463 271.995 148.483 269.761 141.642 266.828C136.101 260.689 133.029 253.43 132.428 245.049C110.551 245.249 89.3293 241.758 68.7655 234.578C65.0319 232.999 61.9605 230.625 59.5511 227.458C78.2579 225.225 89.5663 214.894 93.4765 196.465C95.1343 187.193 95.832 177.839 95.5707 168.403C95.1108 154.293 94.413 140.192 93.4765 126.101C91.5072 116.162 89.1341 106.389 86.3564 96.7827C125.688 87.3138 165.058 77.9596 204.467 68.721C217.426 65.4109 230.55 63.0375 243.837 61.6008C243.903 59.28 243.485 57.0462 242.581 54.8995C237.351 46.1137 235.117 36.6202 235.879 26.419C238.232 17.9399 243.119 11.3782 250.539 6.73387C256.944 4.97838 260.714 7.35173 261.847 13.854C262.599 28.5519 261.343 43.0714 258.077 57.4125C255.177 57.363 252.665 58.2007 250.539 59.9255C257.655 60.6578 264.636 62.0539 271.48 64.1138C271.971 63.9385 272.39 63.6593 272.737 63.2762C272.917 54.0348 273.475 44.8205 274.412 35.6333C277.514 24.534 283.796 15.7385 293.259 9.24686C299.213 6.32651 305.077 6.46607 310.85 9.66569C314.012 13.2715 314.988 17.4598 313.782 22.2306C309.26 38.0478 303.116 53.1257 295.354 67.4645C293.579 71.8103 292.043 76.2775 290.746 80.8671C291.025 81.146 291.305 81.4258 291.584 81.7048C292.222 80.7599 292.781 79.7823 293.259 78.7729C293.818 78.2142 294.376 78.2142 294.935 78.7729C301.717 87.2576 306.324 96.8908 308.756 107.672C311.391 123.881 312.648 140.216 312.526 156.676C312.408 186.209 310.871 215.666 307.918 245.049C307.452 246.821 306.753 248.496 305.824 250.075C282.413 265.017 256.725 273.812 228.759 276.462C221.91 276.605 215.208 277.024 208.655 277.718Z" fill="#C28868"/>
<path fill-rule="evenodd" clip-rule="evenodd" d="M298.286 27.2566C299.02 27.1469 299.578 27.4262 299.961 28.0942C293.363 40.8925 288.058 54.2951 284.045 68.3021C282.987 66.8014 282.428 65.1261 282.37 63.2761C283.795 56.7377 285.61 50.3155 287.815 44.0099C290.67 38.0186 294.16 32.4342 298.286 27.2566Z" fill="#0D0B06"/>
<path fill-rule="evenodd" clip-rule="evenodd" d="M232.948 78.3545C242.21 78.0789 251.144 79.6143 259.753 82.9616C261.645 84.3982 263.46 85.9336 265.198 87.5688C265.608 88.6519 265.748 89.7693 265.617 90.9194C256.036 88.7725 246.403 86.8174 236.717 85.0558C230.576 85.8943 224.713 87.5696 219.126 90.0817C217.415 87.4917 217.555 84.9787 219.545 82.5428C223.683 79.853 228.151 78.4575 232.948 78.3545Z" fill="#0A0804"/>
<path fill-rule="evenodd" clip-rule="evenodd" d="M191.902 117.725C189.979 116.132 188.443 114.178 187.295 111.861C186.877 108.242 186.737 104.612 186.876 100.971C183.994 100.805 181.202 101.224 178.5 102.228C177.726 103.938 177.447 105.753 177.662 107.673C177.751 109.247 177.333 109.526 176.405 108.51C175.458 106.647 174.76 104.692 174.311 102.647C176.003 98.7081 177.679 94.7987 179.337 90.9195C175.903 90.3742 172.552 90.932 169.285 92.5948C166.939 89.6931 167.498 87.32 170.961 85.4747C180.197 81.598 189.411 81.598 198.603 85.4747C199.86 86.7312 201.116 87.9877 202.373 89.2442C202.788 90.8969 202.927 92.5722 202.792 94.2701C197.664 92.6091 192.498 91.2127 187.295 90.0818C183.025 89.6747 180.931 91.6298 181.013 95.9455C189.114 94.8096 196.513 96.4849 203.211 100.971C205.785 111.071 202.015 116.656 191.902 117.725Z" fill="#060503"/>
<path fill-rule="evenodd" clip-rule="evenodd" d="M241.324 90.9191C237.974 90.3604 234.623 89.8025 231.272 89.2438C237.836 86.7735 244.259 87.1923 250.538 90.5003C252.263 91.4929 252.403 92.4705 250.957 93.4321C247.82 92.2644 244.609 91.4267 241.324 90.9191Z" fill="#100D07"/>
<path fill-rule="evenodd" clip-rule="evenodd" d="M230.435 90.0817C230.435 90.3607 230.435 90.6405 230.435 90.9194C230.289 92.8971 230.011 94.8514 229.598 96.7831C238.368 95.9697 246.745 97.2262 254.727 100.553C256.803 103.066 257.641 105.998 257.24 109.348C256.962 111.302 256.682 113.257 256.403 115.212C255.832 114.589 255.273 114.031 254.727 113.536C255.239 110.637 254.262 108.403 251.796 106.835C250.073 109.991 249.097 113.342 248.864 116.887C243.452 120.655 238.705 120.096 234.624 115.212C233.918 110.783 233.638 106.316 233.786 101.809C230.936 101.677 228.143 101.956 225.409 102.647C221.104 103.521 219.848 102.125 221.64 98.4584C224.583 96.7814 226.538 94.2684 227.503 90.9194C228.35 90.2183 229.328 89.9393 230.435 90.0817Z" fill="#070604"/>
<path fill-rule="evenodd" clip-rule="evenodd" d="M231.272 89.2439C234.623 89.8026 237.974 90.3605 241.324 90.9192C237.695 90.9192 234.064 90.9192 230.435 90.9192C230.435 90.6403 230.435 90.3605 230.435 90.0816C230.435 89.5228 230.714 89.2439 231.272 89.2439Z" fill="#0A0804"/>
<path fill-rule="evenodd" clip-rule="evenodd" d="M191.902 117.724C183.958 118.656 179.211 115.305 177.662 107.672C177.447 105.753 177.726 103.937 178.499 102.228C181.202 101.223 183.994 100.804 186.876 100.971C186.737 104.612 186.877 108.241 187.295 111.861C188.443 114.178 189.979 116.132 191.902 117.724Z" fill="#C8BFB7"/>
<path fill-rule="evenodd" clip-rule="evenodd" d="M234.623 115.211C231.807 115.572 229.434 114.734 227.503 112.698C226.61 109.377 225.913 106.026 225.409 102.646C228.143 101.956 230.936 101.676 233.786 101.809C233.638 106.315 233.918 110.783 234.623 115.211Z" fill="#D4CBC4"/>
<path fill-rule="evenodd" clip-rule="evenodd" d="M254.728 113.536C254.018 114.871 252.901 115.848 251.377 116.468C250.583 116.873 249.745 117.012 248.864 116.887C249.097 113.342 250.074 109.991 251.796 106.835C254.262 108.403 255.24 110.637 254.728 113.536Z" fill="#D4CBC4"/>
<path fill-rule="evenodd" clip-rule="evenodd" d="M244.676 207.354C249.486 209.491 254.233 211.864 258.916 214.475C261.043 215.395 261.601 216.792 260.591 218.663C253.556 217.099 247.552 218.914 242.581 224.108C228.477 231.506 213.538 236.393 197.766 238.767C194.147 239.185 190.517 239.325 186.877 239.186C186.877 237.51 186.877 235.835 186.877 234.16C193.654 233.722 200.356 232.745 206.981 231.228C220.608 227.233 233.592 221.788 245.932 214.893C245.558 212.432 245.14 209.919 244.676 207.354Z" fill="#0F0C07"/>
<path fill-rule="evenodd" clip-rule="evenodd" d="M77.1422 243.374C80.5733 244.218 83.9239 245.056 87.1942 245.887C83.4398 246.277 80.0891 245.44 77.1422 243.374Z" fill="#33352D"/>
<path fill-rule="evenodd" clip-rule="evenodd" d="M199.441 254.264C203.071 253.705 206.701 253.147 210.331 252.588C217.119 251.399 223.82 250.002 230.435 248.4C230.635 250.048 230.356 251.584 229.597 253.007C221.017 256.61 212.081 257.726 202.792 256.358C201.424 255.956 200.307 255.258 199.441 254.264Z" fill="#120F09"/>
<path fill-rule="evenodd" clip-rule="evenodd" d="M210.331 252.588C206.702 253.147 203.071 253.705 199.442 254.264C198.781 254.027 198.222 253.608 197.766 253.007C201.945 252.589 206.134 252.449 210.331 252.588Z" fill="#514327"/>
<path fill-rule="evenodd" clip-rule="evenodd" d="M302.473 254.264C303.59 254.264 304.707 254.264 305.824 254.264C306.024 255.911 305.745 257.448 304.986 258.871C302.812 259.822 300.578 260.52 298.285 260.965C298.16 260.084 298.299 259.246 298.704 258.452C300.134 257.165 301.39 255.768 302.473 254.264Z" fill="#D3AF78"/>
<path fill-rule="evenodd" clip-rule="evenodd" d="M294.935 260.127C296.187 260.056 297.025 260.614 297.448 261.802C295.6 264.047 293.506 266.002 291.165 267.666C290.519 267.545 289.96 267.266 289.49 266.828C288.302 268.366 287.324 270.042 286.558 271.854C284.97 272.664 283.295 272.943 281.532 272.692C281.308 270.498 281.587 268.404 282.37 266.41C284.464 265.712 286.558 265.013 288.652 264.315C290.704 262.685 292.798 261.289 294.935 260.127Z" fill="#D3AF78"/>
<path fill-rule="evenodd" clip-rule="evenodd" d="M349.383 358.134C347.517 357.379 346.68 355.984 346.87 353.946C345.632 353.726 344.515 354.005 343.519 354.783C340.656 363.539 336.607 371.637 331.373 379.076C330.747 381.944 330.887 384.736 331.792 387.452C331.137 389.086 330.019 390.343 328.441 391.222C325.904 392.96 323.251 394.496 320.483 395.829C306.169 393.575 295.838 386.036 289.49 373.212C288.967 369.256 289.247 365.346 290.327 361.485C292.838 355.396 296.328 350.092 300.798 345.569C302.38 344.92 304.055 344.92 305.824 345.569C303.722 332.104 301.209 318.702 298.285 305.361C299.754 303.089 301.289 300.855 302.892 298.66C303.307 297.007 303.447 295.332 303.311 293.634C302.43 293.509 301.592 293.648 300.798 294.053C299.065 296.913 297.111 299.566 294.935 302.01C293.712 301.954 292.596 302.233 291.584 302.848C291.138 301.064 290.441 299.389 289.49 297.822C289.673 312.047 291.767 326.008 295.772 339.705C291.888 347.013 288.398 354.552 285.301 362.322C285.131 365.607 284.713 368.818 284.045 371.955C282.436 372.257 281.039 372.956 279.857 374.05C278.791 373.592 277.674 373.313 276.506 373.212C269.326 375.021 262.066 376.557 254.727 377.819C240.208 378.378 225.687 378.378 211.168 377.819C199.517 376.071 187.79 375.373 175.986 375.725C173.399 374.648 170.607 374.091 167.61 374.05C157.573 373.078 148.917 369.169 141.642 362.322C136.238 351.109 133.167 339.242 132.428 326.722C133.978 317.995 134.815 309.199 134.941 300.335C136.036 297.387 136.036 294.317 134.941 291.121C134.432 291.225 134.153 291.504 134.103 291.959C132.792 305.373 131.396 318.775 129.915 332.166C127.94 332.03 125.986 332.169 124.051 332.585C123.387 333.494 122.828 334.472 122.376 335.517C124.627 336.996 127 338.393 129.496 339.705C130.685 348.09 132.779 356.188 135.778 363.998C135.811 364.905 136.091 365.742 136.616 366.511C134.718 367.102 132.764 366.962 130.753 366.092C129.589 364.452 128.332 362.917 126.983 361.485C126.336 361.606 125.778 361.885 125.308 362.322C125.306 364.459 124.607 366.134 123.214 367.348C120.064 360.748 117.691 353.767 116.093 346.407C114.555 327.45 118.046 309.58 126.564 292.796C127.992 292.304 129.389 292.025 130.753 291.959C133.319 288.143 135.692 284.234 137.873 280.231C139.396 278.553 141.211 277.437 143.317 276.881C164.381 289.61 187.416 295.473 212.425 294.472C218.428 294.332 224.431 294.193 230.435 294.053C232.284 293.893 233.959 293.474 235.46 292.796C240.919 292.553 246.224 291.995 251.376 291.121C251.756 290.318 252.313 289.62 253.051 289.027C271.866 284.735 288.619 276.638 303.311 264.734C309.109 263.486 314.414 264.464 319.227 267.666C332.196 284.049 342.108 302.198 348.964 322.114C350.267 328.352 351.245 334.634 351.896 340.962C351.327 346.734 350.489 352.458 349.383 358.134Z" fill="#F9DCAD"/>
<path fill-rule="evenodd" clip-rule="evenodd" d="M275.669 268.504C276.786 268.504 277.903 268.504 279.02 268.504C279.741 272.679 278.344 275.751 274.831 277.718C272.875 276.507 271.759 274.692 271.481 272.274C272.812 270.907 274.208 269.65 275.669 268.504Z" fill="#D3AF78"/>
<path fill-rule="evenodd" clip-rule="evenodd" d="M137.454 267.666C138.335 267.542 139.173 267.681 139.967 268.085C141.676 269.78 143.63 271.176 145.831 272.273C146.683 273.152 146.822 274.13 146.249 275.205C144.146 273.477 141.773 272.221 139.129 271.436C137.842 270.506 137.284 269.25 137.454 267.666Z" fill="#D3AF78"/>
<path fill-rule="evenodd" clip-rule="evenodd" d="M270.643 276.043C267.854 275.804 265.341 276.363 263.104 277.718C262.269 277.79 261.572 277.511 261.01 276.881C260.854 279.005 260.435 280.959 259.753 282.744C259.753 281.348 259.753 279.952 259.753 278.556C256.362 278.468 253.012 278.747 249.701 279.394C249.701 280.231 249.701 281.069 249.701 281.907C249.026 280.653 248.468 279.256 248.026 277.718C248.201 277.228 248.481 276.809 248.863 276.462C255.666 275.772 262.228 274.237 268.549 271.855C270.133 272.79 270.831 274.187 270.643 276.043Z" fill="#D3AF78"/>
<path fill-rule="evenodd" clip-rule="evenodd" d="M143.317 276.881C141.211 277.437 139.396 278.554 137.873 280.231C135.692 284.234 133.319 288.143 130.753 291.959C129.389 292.025 127.992 292.304 126.564 292.796C128.292 286.496 130.526 280.353 133.266 274.368C136.966 273.699 140.317 274.537 143.317 276.881Z" fill="#F3D19D"/>
<path fill-rule="evenodd" clip-rule="evenodd" d="M148.343 272.692C150.631 273.134 152.865 273.832 155.044 274.787C156.1 276.306 156.1 277.842 155.044 279.394C153.022 278.719 151.066 277.882 149.181 276.881C148.383 275.587 148.104 274.19 148.343 272.692Z" fill="#D3AF78"/>
<path fill-rule="evenodd" clip-rule="evenodd" d="M157.558 276.043C160.667 276.429 163.739 276.987 166.772 277.718C166.772 279.394 166.772 281.069 166.772 282.744C163.799 282.795 161.007 282.097 158.396 280.65C157.637 279.227 157.358 277.691 157.558 276.043Z" fill="#D3AF78"/>
<path fill-rule="evenodd" clip-rule="evenodd" d="M270.643 276.043C270.643 277.16 270.643 278.277 270.643 279.394C268.268 280.463 265.755 281.021 263.104 281.069C263.104 279.952 263.104 278.835 263.104 277.718C265.342 276.363 267.855 275.804 270.643 276.043Z" fill="#F3D19D"/>
<path fill-rule="evenodd" clip-rule="evenodd" d="M168.448 278.556C172.676 278.843 176.865 279.401 181.013 280.231C181.013 282.186 181.013 284.141 181.013 286.095C176.556 286.532 172.367 285.694 168.448 283.582C167.594 281.94 167.594 280.265 168.448 278.556Z" fill="#D3AF78"/>
<path fill-rule="evenodd" clip-rule="evenodd" d="M243.837 277.718C244.675 277.718 245.513 277.718 246.35 277.718C246.778 279.836 247.337 281.93 248.026 284.001C247.427 286.33 245.891 287.308 243.419 286.933C239.765 285.524 237.951 282.733 237.974 278.556C240.117 278.809 242.072 278.529 243.837 277.718Z" fill="#F3D19D"/>
<path fill-rule="evenodd" clip-rule="evenodd" d="M229.598 279.394C232.111 279.394 234.624 279.394 237.137 279.394C237.507 282.454 237.787 285.526 237.974 288.608C232.706 289.338 227.401 289.617 222.059 289.446C222.059 286.374 222.059 283.303 222.059 280.231C224.75 280.491 227.263 280.212 229.598 279.394Z" fill="#F3D19D"/>
<path fill-rule="evenodd" clip-rule="evenodd" d="M259.753 282.744C256.918 284.206 253.846 284.625 250.539 284.001C249.909 283.439 249.629 282.741 249.701 281.907C249.701 281.069 249.701 280.231 249.701 279.394C253.012 278.747 256.362 278.468 259.753 278.556C259.753 279.952 259.753 281.348 259.753 282.744Z" fill="#F3D19D"/>
<path fill-rule="evenodd" clip-rule="evenodd" d="M193.578 281.069C189.832 280.576 186.482 281.134 183.526 282.744C182.768 282.15 182.489 281.313 182.688 280.231C186.484 279.965 190.115 280.244 193.578 281.069Z" fill="#D3AF78"/>
<path fill-rule="evenodd" clip-rule="evenodd" d="M193.577 281.069C194.396 283.403 194.675 285.916 194.415 288.608C191.6 288.51 188.808 288.232 186.038 287.77C183.97 286.843 183.132 285.167 183.525 282.744C186.481 281.133 189.832 280.575 193.577 281.069Z" fill="#F3D19D"/>
<path fill-rule="evenodd" clip-rule="evenodd" d="M209.493 286.933C209.493 287.77 209.493 288.608 209.493 289.446C205.583 289.446 201.675 289.446 197.765 289.446C197.161 289.095 196.742 288.538 196.509 287.77C196.093 285.554 195.953 283.32 196.09 281.069C203.634 280.93 211.173 281.069 218.707 281.488C219.508 284.331 219.787 287.263 219.545 290.283C217.294 290.421 215.06 290.281 212.843 289.864C211.944 287.807 211.106 285.713 210.33 283.582C209.552 284.578 209.273 285.695 209.493 286.933Z" fill="#F3D19D"/>
<path fill-rule="evenodd" clip-rule="evenodd" d="M186.038 287.77C188.808 288.232 191.6 288.511 194.415 288.608C191.517 289.751 188.726 289.471 186.038 287.77Z" fill="#D3AF78"/>
<path fill-rule="evenodd" clip-rule="evenodd" d="M209.494 286.933C210.276 287.827 210.556 288.944 210.331 290.283C205.98 290.552 201.791 290.272 197.766 289.446C201.676 289.446 205.584 289.446 209.494 289.446C209.494 288.608 209.494 287.77 209.494 286.933Z" fill="#D3AF78"/>
<path fill-rule="evenodd" clip-rule="evenodd" d="M134.103 291.959C134.153 291.504 134.432 291.225 134.941 291.121C136.036 294.317 136.036 297.387 134.941 300.335C135.203 297.368 134.923 294.576 134.103 291.959Z" fill="#D3AF78"/>
<path fill-rule="evenodd" clip-rule="evenodd" d="M298.285 305.361C295.525 306.47 294.409 305.354 294.935 302.011C297.111 299.566 299.065 296.914 300.798 294.053C301.593 293.648 302.43 293.509 303.311 293.634C303.447 295.332 303.307 297.007 302.893 298.66C301.289 300.856 299.754 303.09 298.285 305.361Z" fill="#0F100F"/>
<path fill-rule="evenodd" clip-rule="evenodd" d="M294.935 302.011C294.409 305.354 295.526 306.47 298.286 305.361C301.209 318.702 303.722 332.105 305.825 345.569C304.056 344.92 302.381 344.92 300.799 345.569C301.403 342.791 301.543 339.998 301.218 337.193C298.803 336.284 297.128 334.608 296.192 332.167C293.234 322.619 291.699 312.846 291.585 302.848C292.597 302.234 293.713 301.955 294.935 302.011Z" fill="#F3D19D"/>
<path fill-rule="evenodd" clip-rule="evenodd" d="M323.416 331.329C326.414 331.552 326.694 332.668 324.254 334.68C320.229 337.791 315.761 339.188 310.851 338.868C310.173 337.552 309.893 336.155 310.013 334.68C314.969 335.116 319.436 333.999 323.416 331.329Z" fill="#151615"/>
<path fill-rule="evenodd" clip-rule="evenodd" d="M311.688 343.056C316.051 343.354 318.006 345.448 317.551 349.338C315.616 349.755 313.662 349.894 311.688 349.757C311.688 347.523 311.688 345.29 311.688 343.056Z" fill="#151615"/>
<path fill-rule="evenodd" clip-rule="evenodd" d="M349.382 358.134C346.311 369.583 340.447 379.356 331.791 387.452C330.887 384.736 330.747 381.944 331.373 379.076C336.606 371.637 340.656 363.54 343.519 354.783C344.515 354.005 345.631 353.726 346.869 353.946C346.679 355.984 347.517 357.379 349.382 358.134Z" fill="#F3D19D"/>
<path fill-rule="evenodd" clip-rule="evenodd" d="M135.778 363.997C136.295 364.09 136.714 364.369 137.035 364.835C137.594 367.069 137.594 369.302 137.035 371.536C136.021 374.541 134.765 377.333 133.265 379.913C127.949 377.237 124.598 373.048 123.214 367.348C124.607 366.134 125.306 364.459 125.308 362.322C125.778 361.885 126.336 361.606 126.983 361.484C128.332 362.917 129.589 364.452 130.752 366.092C132.764 366.962 134.718 367.102 136.616 366.51C136.091 365.742 135.811 364.905 135.778 363.997Z" fill="#F3D19D"/>
<path fill-rule="evenodd" clip-rule="evenodd" d="M139.967 369.024C143.581 369.252 144 370.368 141.224 372.374C137.979 378.358 136.583 384.78 137.035 391.641C136.245 391.001 135.826 390.164 135.779 389.128C136.389 384.964 136.808 380.776 137.035 376.563C137.133 373.662 138.111 371.149 139.967 369.024Z" fill="#D3AF78"/>
<path fill-rule="evenodd" clip-rule="evenodd" d="M167.61 374.05C170.607 374.091 173.399 374.649 175.987 375.725C172.953 375.874 170.16 375.316 167.61 374.05Z" fill="#D3AF78"/>
<path fill-rule="evenodd" clip-rule="evenodd" d="M175.149 390.803C175.242 391.32 175.521 391.739 175.987 392.06C177.64 392.474 179.315 392.614 181.013 392.478C182.094 392.28 182.932 392.559 183.526 393.316C183.876 393.921 184.434 394.34 185.201 394.573C187.418 394.989 189.652 395.129 191.903 394.991C193.963 395.158 195.918 395.716 197.766 396.667C190.988 397.828 184.287 397.549 177.662 395.829C174.86 394.391 171.79 393.832 168.448 394.154C167.218 396.333 167.776 398.149 170.123 399.599C173.489 401.47 176.84 403.285 180.175 405.043C178.884 405.599 177.487 406.157 175.987 406.719C176.091 407.227 176.37 407.506 176.825 407.556C177.956 409.85 179.631 411.665 181.851 413.001C191.444 416.291 201.217 419.083 211.169 421.378C212.403 421.973 212.962 422.949 212.844 424.31C212.892 425.239 213.171 426.076 213.682 426.823C214.107 429.919 214.665 432.991 215.357 436.037C215.159 437.118 215.438 437.956 216.195 438.55C220.286 457.104 225.312 475.393 231.273 493.417C230.994 493.836 230.714 494.255 230.435 494.673C209.114 496.477 188.173 494.383 167.61 488.391C165.844 487.435 164.308 486.179 163.003 484.621C157.048 459.419 151.325 434.149 145.831 408.813C147.216 406.634 147.635 404.26 147.088 401.693C140.048 393.252 138.931 384.037 143.737 374.05C153.463 381.145 163.934 386.73 175.149 390.803Z" fill="#92A0AA"/>
<path fill-rule="evenodd" clip-rule="evenodd" d="M154.207 374.887C157.022 374.984 159.814 375.263 162.584 375.725C162.584 377.121 162.584 378.517 162.584 379.913C159.107 379.267 156.315 377.592 154.207 374.887Z" fill="#F3D19D"/>
<path fill-rule="evenodd" clip-rule="evenodd" d="M165.097 377.4C170.195 377.41 172.289 379.644 171.379 384.102C167.959 383.133 165.865 380.898 165.097 377.4Z" fill="#F3D19D"/>
<path fill-rule="evenodd" clip-rule="evenodd" d="M286.558 378.238C289.186 379.776 291.28 382.01 292.841 384.939C295.923 387.65 298.855 390.442 301.636 393.316C300.912 394.223 300.074 394.362 299.123 393.735C292.387 390.643 288.198 385.478 286.558 378.238Z" fill="#D3AF78"/>
<path fill-rule="evenodd" clip-rule="evenodd" d="M174.311 379.913C180.464 378.813 183.536 381.326 183.526 387.452C178.001 387.876 174.929 385.363 174.311 379.913Z" fill="#F3D19D"/>
<path fill-rule="evenodd" clip-rule="evenodd" d="M270.643 381.589C267.964 381.14 265.73 381.698 263.941 383.264C263.184 382.67 262.905 381.832 263.104 380.751C265.795 380.491 268.308 380.77 270.643 381.589Z" fill="#D3AF78"/>
<path fill-rule="evenodd" clip-rule="evenodd" d="M284.883 384.102C280.461 386.034 276.273 388.408 272.318 391.222C260.001 396.342 247.157 399.552 233.786 400.855C234.226 401.435 234.784 401.853 235.461 402.111C247.477 402.251 259.484 402.67 271.481 403.368C271.081 404.187 270.523 404.885 269.805 405.462C253.892 405.881 237.977 406.021 222.058 405.881C222.058 405.043 222.058 404.206 222.058 403.368C221.221 403.368 220.383 403.368 219.545 403.368C219.798 405.511 219.519 407.467 218.708 409.232C218.708 407.835 218.708 406.44 218.708 405.043C217.87 405.043 217.033 405.043 216.195 405.043C216.024 402.515 215.745 400.002 215.357 397.504C232.452 396.346 249.205 393.414 265.617 388.709C271.523 385.333 277.666 382.68 284.046 380.751C283.989 381.973 284.268 383.09 284.883 384.102Z" fill="#6B7E8F"/>
<path fill-rule="evenodd" clip-rule="evenodd" d="M270.643 381.589C269.287 383.231 267.472 384.348 265.198 384.939C264.598 384.483 264.179 383.925 263.942 383.264C265.73 381.698 267.964 381.14 270.643 381.589Z" fill="#F3D19D"/>
<path fill-rule="evenodd" clip-rule="evenodd" d="M254.727 382.426C256.425 382.291 258.1 382.431 259.753 382.845C260.49 383.981 260.77 385.238 260.591 386.615C258.641 386.753 256.827 387.311 255.146 388.29C252.637 386.399 252.498 384.444 254.727 382.426Z" fill="#F3D19D"/>
<path fill-rule="evenodd" clip-rule="evenodd" d="M209.493 390.803C206.593 391.626 203.521 391.905 200.279 391.641C197.691 390.564 194.899 390.007 191.902 389.966C188.79 388.511 186.836 385.998 186.038 382.427C191.355 381.538 195.264 383.493 197.766 388.29C198.457 389.032 199.294 389.311 200.279 389.128C199.72 387.174 199.162 385.219 198.603 383.264C200.924 383.198 203.158 383.617 205.305 384.521C206.824 386.597 208.221 388.691 209.493 390.803Z" fill="#F3D19D"/>
<path fill-rule="evenodd" clip-rule="evenodd" d="M243 384.102C245.574 383.836 248.087 384.115 250.539 384.939C251.217 386.255 251.497 387.652 251.377 389.127C248.826 389.134 246.313 389.413 243.838 389.965C243.425 388.034 243.146 386.079 243 384.102Z" fill="#F3D19D"/>
<path fill-rule="evenodd" clip-rule="evenodd" d="M221.22 391.641C217.7 391.906 214.35 391.626 211.168 390.803C211.022 388.825 210.744 386.871 210.331 384.939C216.563 383.206 220.193 385.44 221.22 391.641Z" fill="#F3D19D"/>
<path fill-rule="evenodd" clip-rule="evenodd" d="M224.572 384.102C226.377 383.995 228.052 384.413 229.598 385.358C230.949 387.386 232.066 389.48 232.948 391.641C230.102 391.909 227.309 391.63 224.572 390.803C223.041 389.139 222.204 387.184 222.059 384.94C223.14 385.138 223.978 384.859 224.572 384.102Z" fill="#F3D19D"/>
<path fill-rule="evenodd" clip-rule="evenodd" d="M233.785 384.102C239.327 383.5 241.84 386.013 241.324 391.64C235.34 392.75 232.827 390.237 233.785 384.102Z" fill="#F3D19D"/>
<path fill-rule="evenodd" clip-rule="evenodd" d="M284.883 384.101C286.135 387.722 287.81 391.072 289.909 394.153C293.983 403.382 301.103 408.128 311.27 408.394C314.228 408.079 317.16 407.94 320.065 407.975C320.875 411.661 321.154 415.431 320.903 419.283C320.592 445.449 320.034 471.557 319.227 497.605C316.739 498.27 314.226 498.829 311.688 499.28C286.368 500.893 261.796 497.682 237.974 489.647C233.154 470.004 227.988 450.459 222.477 431.01C221.992 427.909 222.132 424.838 222.896 421.796C233.493 421.938 243.823 420.402 253.89 417.189C254.591 416.342 254.87 415.365 254.727 414.257C243.797 415.428 232.908 415.009 222.058 413.001C220.221 410.743 220.221 408.37 222.058 405.881C237.977 406.02 253.892 405.881 269.805 405.462C270.523 404.885 271.081 404.187 271.481 403.368C259.484 402.67 247.477 402.251 235.461 402.111C234.784 401.853 234.225 401.434 233.786 400.855C247.157 399.552 260.001 396.341 272.318 391.221C276.273 388.408 280.461 386.034 284.883 384.101Z" fill="#96A3AD"/>
<path fill-rule="evenodd" clip-rule="evenodd" d="M191.902 389.965C194.9 390.006 197.691 390.564 200.279 391.641C197.213 391.926 194.421 391.368 191.902 389.965Z" fill="#D3AF78"/>
<path fill-rule="evenodd" clip-rule="evenodd" d="M175.15 390.803C177.252 391.161 179.207 391.719 181.014 392.478C179.316 392.614 177.64 392.474 175.988 392.059C175.522 391.739 175.243 391.32 175.15 390.803Z" fill="#6B7E8F"/>
<path fill-rule="evenodd" clip-rule="evenodd" d="M209.494 390.803C210.053 390.803 210.61 390.803 211.169 390.803C214.351 391.626 217.701 391.906 221.221 391.641C214.241 392.757 207.26 392.757 200.28 391.641C203.522 391.905 206.594 391.626 209.494 390.803Z" fill="#D3AF78"/>
<path fill-rule="evenodd" clip-rule="evenodd" d="M168.448 394.154C171.789 393.832 174.86 394.391 177.662 395.829C174.428 395.571 171.358 395.012 168.448 394.154Z" fill="#6B7E8F"/>
<path fill-rule="evenodd" clip-rule="evenodd" d="M183.526 393.316C186.467 393.65 189.259 394.209 191.903 394.991C189.652 395.129 187.418 394.989 185.201 394.572C184.434 394.34 183.876 393.921 183.526 393.316Z" fill="#6B7E8F"/>
<path fill-rule="evenodd" clip-rule="evenodd" d="M325.929 452.79C326.069 437.151 325.929 421.515 325.51 405.881C324.156 403.096 324.017 400.305 325.091 397.504C333.629 391.236 335.583 393.19 330.955 403.368C332.211 410.845 332.769 418.384 332.63 425.985C331.74 448.048 330.763 470.106 329.698 492.16C328.563 492.897 327.306 493.177 325.929 492.998C325.929 479.595 325.929 466.193 325.929 452.79Z" fill="#6B7E8F"/>
<path fill-rule="evenodd" clip-rule="evenodd" d="M289.909 394.154C293.305 396.361 296.935 398.176 300.799 399.598C307.528 401.55 314.091 401.131 320.484 398.342C321.581 398.87 322.28 399.707 322.578 400.855C322.368 405.049 322.089 409.237 321.74 413.42C321.993 415.563 321.713 417.519 320.903 419.283C321.154 415.431 320.875 411.662 320.065 407.975C317.16 407.94 314.228 408.08 311.269 408.394C301.103 408.128 293.982 403.382 289.909 394.154Z" fill="#6B7E8F"/>
<path fill-rule="evenodd" clip-rule="evenodd" d="M201.954 396.667C205.875 396.808 209.785 397.087 213.681 397.504C213.761 401.745 211.667 403.42 207.399 402.53C204.818 402.499 202.584 401.662 200.698 400.017C200.292 398.599 200.711 397.482 201.954 396.667Z" fill="#6B7E8F"/>
<path fill-rule="evenodd" clip-rule="evenodd" d="M173.473 397.504C179.568 398.552 185.712 399.53 191.902 400.436C193.577 400.995 195.253 401.553 196.928 402.112C199.206 404.822 201.998 406.776 205.305 407.975C202.746 408.663 200.233 408.524 197.766 407.556C190.032 404.874 182.353 402.082 174.73 399.18C173.867 398.898 173.448 398.34 173.473 397.504Z" fill="#7E8D9A"/>
<path fill-rule="evenodd" clip-rule="evenodd" d="M322.578 400.855C322.857 400.855 323.136 400.855 323.415 400.855C323.415 405.043 323.415 409.232 323.415 413.42C322.857 413.42 322.299 413.42 321.74 413.42C322.088 409.237 322.367 405.049 322.578 400.855Z" fill="#070706"/>
<path fill-rule="evenodd" clip-rule="evenodd" d="M180.176 405.043C188.432 407.888 196.809 410.401 205.305 412.582C205.305 413.42 205.305 414.258 205.305 415.095C200.837 414.492 196.369 413.794 191.903 413.001C186.997 411.138 182.25 409.044 177.663 406.719C177.154 406.822 176.875 407.101 176.825 407.556C176.37 407.506 176.091 407.227 175.987 406.719C177.487 406.157 178.884 405.599 180.176 405.043Z" fill="#6B7E8F"/>
<path fill-rule="evenodd" clip-rule="evenodd" d="M216.194 405.043C217.032 405.043 217.87 405.043 218.707 405.043C218.707 406.44 218.707 407.835 218.707 409.232C218.659 410.161 218.381 410.998 217.87 411.745C215.669 411.249 213.435 410.97 211.168 410.907C210.668 410.71 210.389 410.291 210.331 409.65C211.363 406.837 213.317 405.302 216.194 405.043Z" fill="#7E8D9A"/>
<path fill-rule="evenodd" clip-rule="evenodd" d="M297.448 407.556C302.223 408.814 306.97 410.071 311.689 411.326C312.071 411.672 312.351 412.091 312.526 412.582C307.48 413.699 302.733 412.861 298.286 410.069C297.761 409.301 297.481 408.463 297.448 407.556Z" fill="#6B7E8F"/>
<path fill-rule="evenodd" clip-rule="evenodd" d="M284.883 410.069C289.421 410.663 293.609 412.199 297.448 414.676C300.402 416.692 303.474 418.507 306.663 420.121C307.405 420.812 307.684 421.65 307.5 422.634C302.397 422.189 297.65 420.654 293.26 418.027C291.551 416.333 289.597 414.936 287.396 413.839C286.022 412.893 285.184 411.637 284.883 410.069Z" fill="#6B7E8F"/>
<path fill-rule="evenodd" clip-rule="evenodd" d="M211.168 410.907C213.435 410.97 215.669 411.249 217.869 411.744C215.571 412.575 213.337 412.295 211.168 410.907Z" fill="#3C413F"/>
<path fill-rule="evenodd" clip-rule="evenodd" d="M219.545 416.771C222.445 415.948 225.517 415.669 228.76 415.933C228.76 416.771 228.76 417.608 228.76 418.446C227.922 418.446 227.084 418.446 226.247 418.446C226.34 417.929 226.619 417.51 227.084 417.189C224.586 416.772 222.073 416.632 219.545 416.771Z" fill="#5A625F"/>
<path fill-rule="evenodd" clip-rule="evenodd" d="M219.545 416.77C222.073 416.632 224.586 416.772 227.084 417.189C226.619 417.51 226.34 417.929 226.247 418.446C223.568 418.895 221.334 418.336 219.545 416.77Z" fill="#6B7E8F"/>
<path fill-rule="evenodd" clip-rule="evenodd" d="M216.195 438.55C215.437 437.956 215.158 437.118 215.357 436.037C216.243 432.794 215.685 429.723 213.682 426.822C213.171 426.076 212.892 425.238 212.844 424.309C215.667 423.133 217.761 423.971 219.126 426.822C223.989 446.253 229.295 465.519 235.042 484.621C235.735 488.006 235.595 491.357 234.623 494.673C228.04 478.13 222.875 461.098 219.126 443.576C218.454 441.277 217.616 439.043 216.613 436.874C216.225 437.372 216.085 437.931 216.195 438.55Z" fill="#7E8E9A"/>
<path fill-rule="evenodd" clip-rule="evenodd" d="M325.091 397.504C324.016 400.305 324.156 403.097 325.51 405.881C325.928 421.515 326.068 437.151 325.928 452.79C325.232 440.369 324.813 427.804 324.672 415.095C324.253 436.314 324.113 457.535 324.253 478.758C323.694 467.03 323.136 455.303 322.578 443.576C322.514 433.511 322.793 423.459 323.415 413.42C323.415 409.232 323.415 405.043 323.415 400.855C323.128 399.194 323.687 398.077 325.091 397.504Z" fill="#586D7F"/>
<path fill-rule="evenodd" clip-rule="evenodd" d="M213.681 426.823C215.684 429.723 216.243 432.794 215.357 436.037C214.665 432.991 214.107 429.919 213.681 426.823Z" fill="#101111"/>
<path fill-rule="evenodd" clip-rule="evenodd" d="M171.798 451.952C173.095 452.221 173.654 453.059 173.474 454.465C178.437 458.427 183.603 462.336 188.97 466.192C189.502 467.42 190.201 468.538 191.064 469.543C190.646 469.822 190.227 470.102 189.808 470.381C183.22 466.313 177.356 461.287 172.217 455.303C171.807 454.22 171.667 453.102 171.798 451.952Z" fill="#131414"/>
<path fill-rule="evenodd" clip-rule="evenodd" d="M181.012 454.465C186.385 457.586 191.97 460.378 197.766 462.842C197.766 463.68 197.766 464.517 197.766 465.355C192.723 463.997 187.976 461.903 183.525 459.072C181.76 458.014 180.923 456.478 181.012 454.465Z" fill="#151716"/>
<path fill-rule="evenodd" clip-rule="evenodd" d="M257.241 460.329C265 464.911 271.981 470.496 278.182 477.082C277.903 477.361 277.623 477.641 277.345 477.92C274.975 476.875 272.742 475.619 270.643 474.151C266.771 469.989 262.582 466.22 258.078 462.842C257.336 462.151 257.057 461.313 257.241 460.329Z" fill="#141515"/>
<path fill-rule="evenodd" clip-rule="evenodd" d="M254.727 465.355C260.132 468.946 264.599 473.553 268.13 479.176C266.95 479.44 265.834 479.161 264.779 478.339C260.234 474.791 256.883 470.463 254.727 465.355Z" fill="#171919"/>
<path fill-rule="evenodd" clip-rule="evenodd" d="M322.578 443.576C323.137 455.303 323.695 467.03 324.253 478.758C324.253 484.062 324.253 489.368 324.253 494.673C323.416 494.673 322.578 494.673 321.74 494.673C321.382 491.336 321.103 487.985 320.903 484.621C321.626 470.945 322.185 457.263 322.578 443.576Z" fill="#7E8D9A"/>
<path fill-rule="evenodd" clip-rule="evenodd" d="M243.837 530.693C243 530.693 242.162 530.693 241.324 530.693C234.341 530.367 227.361 529.948 220.383 529.436C217.555 529.179 216.437 527.643 217.032 524.829C214.374 524.746 211.861 525.305 209.493 526.504C207.594 525.782 206.756 524.386 206.98 522.316C203.44 522.89 199.95 523.727 196.509 524.829C194.322 523.902 192.228 522.784 190.227 521.478C181.569 523.122 173.192 522.284 165.097 518.965C165.235 516.437 165.095 513.924 164.678 511.426C162.534 504.018 160.16 496.758 157.558 489.647C160.086 489.509 162.599 489.649 165.097 490.066C167.219 491.615 169.453 493.01 171.798 494.254C183.551 497.585 195.557 499.12 207.818 498.861C217.113 498.68 226.328 497.982 235.461 496.767C238.712 507.957 241.504 519.266 243.837 530.693Z" fill="#919FAA"/>
<path fill-rule="evenodd" clip-rule="evenodd" d="M248.863 498.024C248.838 498.859 249.257 499.418 250.12 499.699C257.325 502.253 264.725 504.347 272.318 505.982C282.928 506.541 293.538 506.541 304.149 505.982C310.277 505.462 316.141 504.206 321.74 502.212C323.286 500.575 325.241 499.737 327.604 499.699C327.465 503.34 327.604 506.969 328.022 510.589C330.184 512.473 331.162 514.846 330.954 517.709C330.36 521.282 329.382 524.772 328.022 528.18C321.82 530.046 315.537 531.722 309.175 533.206C307.146 533.409 305.751 532.572 304.987 530.693C301.814 532.599 298.463 533.994 294.935 534.881C294.935 533.485 294.935 532.089 294.935 530.693C291.968 532.243 288.897 533.64 285.72 534.881C284.931 534.791 284.234 534.512 283.626 534.044C283.212 532.675 283.073 531.278 283.207 529.855C273.471 530.044 263.978 531.44 254.727 534.044C252.159 533.698 249.646 533.139 247.188 532.368C244.816 520.088 242.582 507.803 240.487 495.511C243.459 495.887 246.251 496.725 248.863 498.024Z" fill="#96A3AD"/>
<path fill-rule="evenodd" clip-rule="evenodd" d="M335.98 518.965C335.436 519.22 334.877 519.499 334.305 519.803C333.744 518.303 333.185 516.906 332.63 515.615C331.167 512.965 329.911 510.173 328.86 507.238C328.112 504.377 328.531 501.724 330.117 499.28C331.849 498.705 333.524 498.845 335.143 499.699C335.978 506.097 336.258 512.519 335.98 518.965Z" fill="#7E8D9A"/>
<path fill-rule="evenodd" clip-rule="evenodd" d="M248.863 498.024C266.509 504.127 284.657 506.221 303.311 504.306C309.375 502.92 315.518 502.222 321.74 502.212C316.141 504.206 310.277 505.462 304.149 505.982C293.538 506.54 282.928 506.54 272.318 505.982C264.725 504.347 257.325 502.252 250.12 499.699C249.257 499.418 248.838 498.859 248.863 498.024Z" fill="#6B7E8F"/>
<path fill-rule="evenodd" clip-rule="evenodd" d="M332.63 515.615C333.185 516.906 333.744 518.303 334.305 519.803C334.877 519.499 335.436 519.22 335.981 518.965C338.015 524.115 336.339 527.186 330.955 528.18C331.162 523.935 331.719 519.747 332.63 515.615Z" fill="#6B7E8F"/>
<path fill-rule="evenodd" clip-rule="evenodd" d="M199.023 563.78C200.279 565.456 200.931 565.237 201.536 567.55C203.405 568.675 201.591 574.26 202.792 575.927C187.02 576.9 171.104 577.04 155.045 576.345C149.188 575.376 143.604 573.701 138.292 571.319C132.6 561.835 131.623 551.922 135.36 541.582C146.171 530.174 158.875 527.522 173.474 533.625C180.31 538.507 186.314 544.231 191.484 550.797C194.75 555.095 197.542 558.585 199.023 563.78Z" fill="#D4CBC4"/>
<path fill-rule="evenodd" clip-rule="evenodd" d="M186.877 529.855C190.437 529.516 193.369 530.632 195.672 533.206C198.546 539.314 200.222 545.736 200.698 552.472C201.161 548.219 201.161 544.031 200.698 539.907C201.257 540.466 201.815 541.024 202.373 541.582C202.792 546.88 202.931 552.185 202.792 557.498C201.642 557.629 200.525 557.489 199.442 557.079C195.451 551.421 192.798 545.139 191.484 538.232C190.02 535.35 188.484 532.557 186.877 529.855Z" fill="#C8BFB7"/>
<path fill-rule="evenodd" clip-rule="evenodd" d="M241.324 530.693C242.162 530.693 243 530.693 243.837 530.693C243.522 534.814 245.338 537.606 249.282 539.069C249.451 541.595 249.172 544.108 248.445 546.608C244.381 548.705 240.333 550.799 236.298 552.891C231.613 558.263 228.681 564.546 227.503 571.738C225.576 572.883 223.481 573.442 221.22 573.413C221.36 569.773 221.22 566.143 220.802 562.524C220.373 565.936 219.675 569.286 218.708 572.576C218.135 572.88 217.577 573.159 217.032 573.413C217.17 570.607 217.031 567.815 216.613 565.037C216.37 567.064 215.952 569.019 215.357 570.9C215.499 572.008 215.22 572.985 214.519 573.832C210.636 574.726 206.727 575.424 202.792 575.926C201.591 574.26 201.954 572.157 201.535 570.9C201.643 568.376 201.643 565.863 201.535 563.362C202.742 562.214 204.139 561.376 205.724 560.849C205.985 557.36 205.845 553.869 205.305 550.378C205.116 548.14 205.674 546.186 206.98 544.514C218.645 541.459 230.093 537.969 241.324 534.043C241.324 532.927 241.324 531.809 241.324 530.693Z" fill="#CE4524"/>
<path fill-rule="evenodd" clip-rule="evenodd" d="M180.175 530.693C185.909 532.13 188.841 535.76 188.97 541.582C185.886 538.358 182.675 535.286 179.337 532.368C179.641 531.796 179.92 531.237 180.175 530.693Z" fill="#B44226"/>
<path fill-rule="evenodd" clip-rule="evenodd" d="M201.117 532.368C205.575 532.811 210.043 533.23 214.519 533.625C215.906 534.834 216.464 536.371 216.195 538.232C212.057 538.252 208.288 539.369 204.886 541.582C203.045 538.702 201.789 535.63 201.117 532.368Z" fill="#B44226"/>
<path fill-rule="evenodd" clip-rule="evenodd" d="M328.442 533.206C329.558 533.206 330.676 533.206 331.792 533.206C333.104 543.034 333.663 553.086 333.468 563.361C330.621 563.794 327.829 564.492 325.091 565.456C324.43 568.05 323.453 568.19 322.159 565.874C321.858 567.64 321.299 569.316 320.484 570.9C316.993 574.949 313.224 578.718 309.176 582.209C307.882 583.203 306.486 583.482 304.987 583.047C302.696 578.24 300.044 573.633 297.029 569.225C292.773 564.558 288.724 559.811 284.883 554.985C285.383 552.685 286.779 551.986 289.072 552.891C292.462 558.838 296.65 564.143 301.637 568.806C304.183 570.611 306.556 570.472 308.757 568.387C309.315 564.758 309.315 561.127 308.757 557.498C306.805 554.008 305.27 550.379 304.15 546.608C309.481 544.614 313.949 545.73 317.552 549.959C317.831 549.68 318.111 549.4 318.39 549.121C316.714 547.457 316.015 545.502 316.296 543.258C318.339 544.537 320.014 546.212 321.322 548.284C321.757 546.785 321.478 545.389 320.484 544.095C319.052 542.692 317.656 541.296 316.296 539.907C315.737 539.069 315.737 538.232 316.296 537.394C320.503 536.255 324.553 534.858 328.442 533.206Z" fill="#CE4524"/>
<path fill-rule="evenodd" clip-rule="evenodd" d="M276.507 534.881C278.005 534.642 279.401 534.921 280.695 535.719C278.512 536.684 276.278 536.823 273.994 536.138C275.03 535.943 275.868 535.524 276.507 534.881Z" fill="#84908B"/>
<path fill-rule="evenodd" clip-rule="evenodd" d="M311.688 537.394C312.526 537.394 313.364 537.394 314.201 537.394C314.201 538.79 314.201 540.186 314.201 541.582C310.512 541.318 309.675 539.922 311.688 537.394Z" fill="#B44226"/>
<path fill-rule="evenodd" clip-rule="evenodd" d="M298.285 539.907C302.112 539.88 305.741 540.717 309.175 542.42C309 542.911 308.72 543.33 308.337 543.677C305.545 544.235 302.753 544.235 299.961 543.677C298.673 542.747 298.115 541.49 298.285 539.907Z" fill="#B44226"/>
<path fill-rule="evenodd" clip-rule="evenodd" d="M268.13 541.583C272.415 543.001 276.883 544.117 281.532 544.933C284.868 547.764 284.868 550.557 281.532 553.31C275.217 549.808 268.516 547.295 261.428 545.771C263.677 544.353 265.911 542.956 268.13 541.583Z" fill="#B44226"/>
<path fill-rule="evenodd" clip-rule="evenodd" d="M293.26 540.745C301.767 547.008 306.513 555.384 307.5 565.875C306.104 565.875 304.708 565.875 303.312 565.875C303.45 563.346 303.31 560.833 302.893 558.336C299.602 552.51 296.391 546.647 293.26 540.745Z" fill="#D4CBC4"/>
<path fill-rule="evenodd" clip-rule="evenodd" d="M292.422 553.31C289.637 550.519 287.124 547.447 284.883 544.095C286.446 543.119 287.842 543.398 289.072 544.933C289.826 547.904 290.944 550.696 292.422 553.31Z" fill="#C8BFB7"/>
<path fill-rule="evenodd" clip-rule="evenodd" d="M292.421 546.608C293.256 546.536 293.953 546.816 294.516 547.446C295.98 550.095 297.655 552.608 299.541 554.985C300.536 556.278 300.815 557.675 300.379 559.173C297.575 556.366 295.062 553.294 292.84 549.959C292.43 548.876 292.29 547.758 292.421 546.608Z" fill="#B44226"/>
<path fill-rule="evenodd" clip-rule="evenodd" d="M165.934 552.472C167.58 552.847 167.859 553.685 166.772 554.985C166.029 554.294 165.751 553.456 165.934 552.472Z" fill="#111211"/>
<path fill-rule="evenodd" clip-rule="evenodd" d="M252.214 551.634C269.253 549.915 283.074 555.778 293.678 569.225C297.041 574.002 300.252 578.889 303.311 583.884C297.436 586.545 291.293 588.499 284.883 589.748C273.714 590.307 262.545 590.307 251.376 589.748C246.494 588.565 241.747 587.029 237.136 585.141C236.121 585.789 236.121 586.487 237.136 587.235C251.362 593.253 266.161 594.928 281.532 592.261C289.28 591.888 296.54 589.934 303.311 586.397C306.14 586.019 308.933 585.461 311.688 584.722C314.646 582.317 317.578 579.943 320.483 577.602C320.584 587.856 315.697 594.696 305.824 598.125C283.051 605.05 260.714 603.933 238.811 594.774C234.948 590.917 232.575 586.31 231.691 580.953C229.57 572.021 231.664 564.342 237.974 557.917C240.749 556.268 243.541 554.593 246.35 552.891C248.474 552.735 250.429 552.316 252.214 551.634Z" fill="#D4CBC4"/>
<path fill-rule="evenodd" clip-rule="evenodd" d="M158.395 554.147C159.564 556.113 159.424 558.068 157.976 560.01C157.388 557.976 157.527 556.021 158.395 554.147Z" fill="#0C0D0C"/>
<path fill-rule="evenodd" clip-rule="evenodd" d="M162.164 552.154C162.583 552.154 164.258 557.498 162.583 557.917C160.908 558.335 161.745 552.154 162.164 552.154Z" fill="#0C0D0C"/>
<path fill-rule="evenodd" clip-rule="evenodd" d="M292.422 553.31C293.898 553.948 294.736 555.065 294.935 556.66C293.459 556.022 292.622 554.904 292.422 553.31Z" fill="#AC9F95"/>
<path fill-rule="evenodd" clip-rule="evenodd" d="M294.935 556.66C297.335 558.343 299.569 560.297 301.637 562.524C302.753 563.361 302.753 564.199 301.637 565.037C299.045 562.454 296.811 559.662 294.935 556.66Z" fill="#AC9F95"/>
<path fill-rule="evenodd" clip-rule="evenodd" d="M217.033 573.414C216.474 572.576 215.916 571.738 215.357 570.901C215.952 569.019 216.371 567.064 216.614 565.037C217.031 567.816 217.171 570.608 217.033 573.414Z" fill="#3D331E"/>
<path fill-rule="evenodd" clip-rule="evenodd" d="M330.117 568.388C331.102 568.204 331.939 568.483 332.63 569.225C331.586 570.752 331.027 572.428 330.955 574.251C329.293 574.153 327.898 574.712 326.767 575.927C325.899 572.587 327.015 570.074 330.117 568.388Z" fill="#C8BFB7"/>
<path fill-rule="evenodd" clip-rule="evenodd" d="M268.967 569.225C269.3 568.367 269.858 568.227 270.643 568.806C272.505 573.596 271.946 573.736 268.967 569.225Z" fill="#171918"/>
<path fill-rule="evenodd" clip-rule="evenodd" d="M265.616 570.9C267.656 571.428 268.215 572.545 267.292 574.251C265.942 573.564 265.384 572.447 265.616 570.9Z" fill="#131414"/>
<path fill-rule="evenodd" clip-rule="evenodd" d="M259.753 572.576C261.43 574.273 261.71 576.227 260.591 578.44C259.775 576.561 259.495 574.606 259.753 572.576Z" fill="#0E0F0F"/>
<path fill-rule="evenodd" clip-rule="evenodd" d="M323.416 573.414C325.567 575.23 325.567 577.185 323.416 579.277C322.399 577.301 322.399 575.347 323.416 573.414Z" fill="#C8BFB7"/>
<path fill-rule="evenodd" clip-rule="evenodd" d="M220.383 575.927C228.471 576.597 228.75 577.435 221.221 578.44C219.291 578.125 219.012 577.287 220.383 575.927Z" fill="#93A19C"/>
<path fill-rule="evenodd" clip-rule="evenodd" d="M206.98 576.764C209.214 576.764 211.447 576.764 213.681 576.764C213.864 577.748 213.585 578.586 212.843 579.277C210.372 580.105 207.859 580.803 205.304 581.371C188.291 584.474 171.258 584.753 154.207 582.209C152.201 581.639 150.246 580.94 148.343 580.115C151.171 579.1 153.963 579.24 156.72 580.534C167.609 581.092 178.499 581.092 189.389 580.534C195.505 579.934 201.369 578.677 206.98 576.764Z" fill="#C8BFB7"/>
<path fill-rule="evenodd" clip-rule="evenodd" d="M215.357 576.764C218.253 576.904 218.532 577.742 216.195 579.277C215.453 578.586 215.174 577.748 215.357 576.764Z" fill="#85928D"/>
</svg>
